<svg version="1" xmlns="http://www.w3.org/2000/svg" width="928" height="928" viewBox="0 0 696.000000 696.000000"><path d="M409 55v34l3.8 1.5c2 .9 6.2 2.4 9.2 3.5 3 1 10.7 3.7 17 6 6.3 2.3 12.6 4.5 14 5 1.4.4 9 3.1 17 6 8 2.8 17.9 6.3 22 7.7 4.1 1.3 8.2 2.7 9 3 2.5.9 34.9 12.2 44.2 15.4 4.8 1.7 9.6 3.2 10.5 3.4 1 .3 5.9 1.9 10.9 3.7l9.1 3.2-.1 7.1c-.1 3.8.2 7.8.7 8.7.4 1 .4 1.8 0 1.8-1 0-.9 17.3.1 18.9.4.6.4 1.1-.1 1.1-1 0-.9 21.2.1 22.9.4.6.4 1.1-.1 1.1-1 0-.9 21.2.1 22.9.4.6.4 1.1-.1 1.1-1 0-.9 53.2.1 54.8.4.7.4 1.2-.1 1.2-1 0-.9 21.2.1 22.9.4.6.4 1.1-.1 1.1-1 0-.9 21.2.1 22.9.4.6.3 1.1-.1 1.1-1.4 0-.6 9.1.8 10.5.8.7 3.7 2 6.4 2.8 2.8.8 16.2 5.4 29.9 10.1 13.7 4.7 25 8.6 25.2 8.6.1 0 .2-60.6.1-134.7l-.2-134.7-13.5-4.8c-7.4-2.6-22.3-7.7-33-11.3-10.7-3.7-20.4-7-21.5-7.5-1.1-.5-4.9-1.8-8.5-3-3.6-1.1-7.3-2.5-8.2-3-1-.6-2.7-1-3.7-1-1.1 0-2.3-.5-2.6-1-.3-.6-1.6-1-2.9-1-1.2 0-2.6-.3-2.9-.6-.6-.6-30.4-11.1-33.2-11.7-.5-.2-1.4-.5-2-.8-.8-.5-5.5-1.9-7.5-2.3-.3-.1-.9-.4-1.5-.8-.5-.3-3.2-1.3-6-2.1-4.2-1.3-60.8-20.5-65.5-22.3-.8-.3-1.7-.6-2-.6-.3 0-2.5-.8-5-1.8-2.5-.9-5.7-2-7.2-2.4L409 21v34z"/><path d="M230.6 89.7c.1 18.6.2 34.1.3 34.4 0 .3 3.4 1.6 7.4 2.9 3.9 1.3 7.7 2.7 8.2 3.1.6.3 2.1.9 3.5 1.2 1.4.2 6.6 1.9 11.5 3.7 8.8 3.1 49.4 17.2 70.5 24.4 5.8 2 11.9 4.1 13.5 4.7 1.7.6 4.8 1.7 7 2.4s11.9 4.1 21.5 7.5c9.6 3.4 18.4 6.4 19.5 6.7 1.9.4 3.3.9 8.8 3.2 1.2.6 3.3 1.3 4.7 1.6 1.4.3 4.1 1.2 6 2 5.6 2.2 27.1 9.6 29.1 10 1.1.2 2.3.7 2.9 1 .5.3 10 3.7 21.1 7.5 11.1 3.8 20.6 7.3 21.1 7.8s.9 3.8.9 7.3c-.1 3.5-.1 7.1-.1 7.9-.1.8 0 63 .1 138.2l.1 136.6 4.7 1.7c2.5.9 5.3 1.9 6.1 2.2.8.3 2 .7 2.5.9 3.3.8 33.4 11.2 34.3 11.8.7.4 1.2.5 1.2.2s2.4.3 5.4 1.4l5.4 1.8.1-7.9c.1-4.3.2-8.5.2-9.2 0-2.4 0-33.2-.1-34.7v-13c.1-.8.1-4.4.1-8-.1-3.6 0-7.2 0-8 0-2 0-33.1-.1-35v-13c.1-.8.1-4.4.1-8-.1-3.6 0-7.2 0-8 0-2 0-33.1-.1-35v-13c.1-.8.1-4.4.1-8-.1-3.6 0-7.2 0-8 0-2 0-33.1-.1-35v-13c.1-.8.1-4.4.1-8-.1-3.6 0-7.2 0-8 0-2 0-33.1-.1-35v-13c.1-1.3.1-10.7 0-16.5 0-1.1 0-3.8.1-6V175c-.1-.8-.2-3.4-.2-5.7 0-4.1-.2-4.2-4.7-5.9-2.6-.9-5.4-1.9-6.2-2.2-.8-.3-1.7-.6-2-.7-.3 0-3-.9-6-2s-5.7-2-6-2c-.3-.1-1.2-.4-2-.8-.8-.3-11.2-3.8-23-7.7-11.8-4-22.4-7.6-23.5-8.1-1.1-.4-6.7-2.4-12.5-4.3-12.4-4.1-42.9-14.5-45-15.3-.8-.3-1.9-.7-2.5-.9-.5-.1-3.5-1.1-6.5-2.2-22.9-8-39.3-13.6-43.5-14.9-2.7-.9-5.5-1.9-6-2.4-.6-.4-2.2-1-3.5-1.3-1.4-.3-5.6-1.6-9.5-3-3.8-1.3-13.7-4.7-22-7.6-8.2-2.8-15.9-5.5-17-6-1.1-.5-6.7-2.4-12.5-4.4-5.8-1.9-19-6.5-29.5-10.1-10.4-3.7-19.4-6.8-20-6.9-.5-.2-1.7-.6-2.5-.9-1.7-.7-10.9-3.7-11.3-3.7-.1 0-.2 15.2-.1 33.7z"/><path d="M55 319.9c0 124.4.3 226 .8 225.9.4 0 1.4.2 2.2.5 2.2.9 24.4 8.4 50.5 17.1 12.7 4.3 23.9 8.1 25 8.6 1.1.5 9 3.2 17.5 6 8.5 2.9 16.2 5.4 17 5.7.8.3 2 .7 2.5.9.6.2 10.9 3.7 23 7.9s27.2 9.3 33.5 11.5c16.8 5.6 44.3 15 46 15.7.8.3 2 .7 2.5.9 1.2.3 17.6 5.9 22 7.5 1.7.6 4.8 1.7 7 2.4s15.9 5.4 30.5 10.5c14.6 5 27.2 9.3 28 9.5.8.2 3.9 1.2 6.7 2.4 2.9 1.1 6.3 2.3 7.5 2.5 2.6.6 10.3 3.2 13.3 4.6 1.8.8 11.4 4 14 4.6.9.3 22.5 7.8 43.9 15.2 4.9 1.7 9.2 3 9.5 2.8.8-.5.8-449.2.1-449.9-.3-.2-5.4-2-11.5-4.1-6-2-11.9-4.1-13-4.5-1.1-.5-2.9-1.1-4-1.4-1.1-.3-12.6-4.2-25.5-8.6-12.9-4.5-27.3-9.5-32-11.1-16.7-5.6-35.5-12.1-37.5-13-1.1-.4-2.9-1.1-4-1.3-1.1-.3-8.5-2.8-16.5-5.6s-14.9-5.3-15.5-5.4c-4.6-1.3-12.2-4.2-13.2-5-.7-.5-1.3-.7-1.3-.3 0 .5-5.6-1.3-13-4.1-.8-.3-1.9-.7-2.5-.9-1.1-.3-46.7-16-58-20-3.8-1.3-7.7-2.6-8.5-2.9-.8-.2-12.1-4-25-8.5s-26-9-29-10-17.4-6-32-11c-14.6-5-33.5-11.5-42-14.5-8.5-2.9-16.3-5.6-17.2-6-1.7-.7-1.8 10.4-1.8 225.4zM152.5 215c9.9 3.4 22.1 7.5 27 9.1 5 1.6 9.7 3.2 10.5 3.6 1.9.7 59.1 20.3 60.5 20.7.6.2 1.7.6 2.5.9 2.6 1 43.4 14.8 45 15.2 2.4.7 25.3 8.5 27.5 9.5 1.1.4 2.9 1.1 4 1.3 1.1.3 12.1 4 24.5 8.2 12.4 4.3 23.1 7.8 23.9 8 .8.1 1.7.9 2 1.8.5 1.3.6 186.2.2 204.2v14c-.2 6.6-.3 10.7-.4 38.5l-.1 23.6-2.8-.4c-1.5-.2-2.8-.8-2.8-1.1 0-.4-.6-.8-1.2-.8-.7-.1-8.7-2.6-17.8-5.8-9.1-3.1-20.5-7-25.5-8.6-4.9-1.6-9.7-3.2-10.5-3.6-.8-.3-1.9-.7-2.5-.9-1.6-.4-33.8-11.4-35.5-12.1-.8-.3-1.9-.7-2.5-.8-.5-.2-7.7-2.6-16-5.5-8.2-2.8-16.6-5.7-18.5-6.2-1.9-.6-4.8-1.7-6.5-2.3-2.6-1.1-21-7.3-24-8.2-.5-.1-4.1-1.4-8-2.7-3.8-1.4-20-7-36-12.4-15.9-5.5-30.3-10.5-32-11.2-1.6-.6-3.2-1.2-3.5-1.2-4.3-.8-4 8.7-4.2-139.2-.2-75.9.1-139.3.5-140.8.7-2.2 1.2-2.6 2.5-1.9 1 .5 9.8 3.7 19.7 7.1z"/><path d="M158 252.7c-.1 1-.1 48.8-.1 106.3-.1 85.9.2 104.6 1.3 105.3 1.2.6 18 6.5 20.3 7.1 2 .4 12.1 3.8 14 4.6 1.9.8 12.1 4.2 13.8 4.6.4.1.8.2 1 .4.1.1.9.3 1.7.5 2.3.6 34.2 11.5 36.5 12.5 1.1.4 9.4 3.3 18.5 6.4 20.8 6.9 66 22.4 68 23.3.8.3 2.1.7 2.9.9.7.1 3.8 1.3 6.8 2.5 3.6 1.5 5.7 1.9 6.1 1.2.4-.6.7-48.7.6-106.9V315.7l-20-6.8c-41.8-14.2-94-32-95.2-32.4-.7-.2-1.3-.4-1.5-.4-.1 0-2.9-1-6.2-2.2-3.3-1.1-13.2-4.5-22-7.5s-16.7-5.7-17.5-6.1c-.8-.3-1.9-.7-2.5-.9-.5-.1-6.3-2.1-12.7-4.3-6.5-2.3-12.2-4.1-12.8-4.1-.5 0-1 .8-1 1.7z"/></svg>